<svg width="29" height="26" viewBox="0 0 29 26" fill="none" xmlns="http://www.w3.org/2000/svg">
<path d="M1 6.75085H27.8333" stroke="#5B5B5B" stroke-width="1.5" stroke-linecap="round"/>
<path d="M24.0566 6.75078H4.7675L4.58491 9.70336C4.3502 13.4989 4.54926 17.3089 5.17824 21.0594L5.41921 22.4962C5.66158 23.9414 6.91252 25 8.37789 25H20.4462C21.9116 25 23.1626 23.9414 23.4049 22.4962L23.6459 21.0594C24.2749 17.3089 24.4739 13.4989 24.2392 9.70336L24.0566 6.75078Z" fill="#C4DCD3"/>
<path d="M24.0566 6.75078H4.7675L4.58491 9.70336C4.3502 13.4989 4.54926 17.3089 5.17824 21.0594L5.41921 22.4962C5.66158 23.9414 6.91252 25 8.37789 25H20.4462C21.9116 25 23.1626 23.9414 23.4049 22.4962L23.6459 21.0594C24.2749 17.3089 24.4739 13.4989 24.2392 9.70336L24.0566 6.75078Z" stroke="#5B5B5B" stroke-width="1.5" stroke-linecap="round" stroke-linejoin="round"/>
<path d="M9.05396 6.7508V5.79233C9.05396 4.52133 9.61847 3.30238 10.6233 2.40364C11.6281 1.5049 12.991 1 14.412 1C15.8331 1 17.196 1.5049 18.2008 2.40364C19.2056 3.30238 19.7701 4.52133 19.7701 5.79233V6.7508" stroke="#5B5B5B" stroke-width="1.5" stroke-linecap="round" stroke-linejoin="round"/>
<path d="M11.1973 11.8839V19.8286" stroke="#5B5B5B" stroke-width="1.5" stroke-linecap="round" stroke-linejoin="round"/>
<path d="M17.627 11.8839V19.8286" stroke="#5B5B5B" stroke-width="1.5" stroke-linecap="round" stroke-linejoin="round"/>
</svg>
