<svg width="50" height="56" viewBox="0 0 50 56" fill="none" xmlns="http://www.w3.org/2000/svg">
<path d="M2 14.7778C2 7.72081 7.72081 2 14.7778 2H31.6035C32.284 2 32.9364 2.27141 33.4161 2.75407L47.257 16.6804C47.7329 17.1592 48 17.8068 48 18.4818V40.3333C48 47.3903 42.2792 53.1111 35.2222 53.1111H14.7778C7.72081 53.1111 2 47.3903 2 40.3333V14.7778Z" fill="#34574A" stroke="white" stroke-width="3.83333"/>
<path d="M12.2222 25L14.7777 25" stroke="white" stroke-width="3.83333" stroke-linecap="round"/>
<path d="M12.2222 30.1111L14.7777 30.1111" stroke="white" stroke-width="3.83333" stroke-linecap="round"/>
<path d="M12.2222 35.2222L14.7777 35.2222" stroke="white" stroke-width="3.83333" stroke-linecap="round"/>
<path d="M19.8889 30.1111H37.7778" stroke="white" stroke-width="3.83333" stroke-linecap="round"/>
<path d="M19.8889 25H37.7778" stroke="white" stroke-width="3.83333" stroke-linecap="round"/>
<path d="M19.8889 35.2222H37.7778" stroke="white" stroke-width="3.83333" stroke-linecap="round"/>
<path d="M32.6667 2.61696C32.6667 2.38929 32.942 2.27527 33.103 2.43626L47.5638 16.8971C47.7248 17.0581 47.6108 17.3333 47.3831 17.3333H40.3334C36.0992 17.3333 32.6667 13.9008 32.6667 9.66667V2.61696Z" fill="#34574A" stroke="white" stroke-width="3.83333"/>
</svg>
