<svg width="94" height="87" viewBox="0 0 94 87" fill="none" xmlns="http://www.w3.org/2000/svg">
<path d="M50.6123 36.7428C54.7824 38.8413 56.2464 43.6338 53.9964 47.4149C51.7464 51.196 46.5678 52.6458 42.3977 50.5472C38.2276 48.4487 36.7636 43.6562 39.0136 39.8751C41.2636 36.094 46.4422 34.6443 50.6123 36.7428Z" stroke="#424242" stroke-width="2"/>
<path d="M44.8713 27.1231L44.9873 27.3209C46.6028 30.0751 50.6769 30.4085 52.9804 27.9795C55.0695 25.7766 58.7797 27.6436 57.8883 30.4493C56.9055 33.5429 59.4072 36.5186 62.8006 36.2851L63.0443 36.2683C66.0609 36.0607 67.1359 39.8501 64.4467 41.2623C61.4279 42.8476 60.8913 46.7251 63.4092 48.7918C65.6504 50.6314 63.5553 54.1522 60.6622 53.408C57.412 52.5721 54.15 55.0781 54.3255 58.2708C54.4818 61.115 50.4318 62.3253 48.9956 59.877L48.8796 59.6792C47.2641 56.9249 43.19 56.5916 40.8866 59.0205C38.7974 61.2235 35.0873 59.3564 35.9786 56.5507C36.9614 53.4572 34.4597 50.4814 31.0663 50.715L30.8226 50.7318C27.806 50.9394 26.7311 47.15 29.4202 45.7378C32.439 44.1525 32.9756 40.275 30.4578 38.2083C28.2165 36.3686 30.3116 32.8479 33.2047 33.592C36.4549 34.428 39.7169 31.922 39.5414 28.7292C39.3851 25.8851 43.4352 24.6747 44.8713 27.1231Z" stroke="#424242" stroke-width="2"/>
</svg>
