<svg width="29" height="27" viewBox="0 0 29 27" fill="none" xmlns="http://www.w3.org/2000/svg">
<path d="M15.4261 1.92522L17.6725 7.44085C18.1028 8.49753 19.0953 9.21863 20.2333 9.30139L26.1731 9.73337C27.0674 9.79841 27.4308 10.9167 26.7455 11.495L22.194 15.3358C21.322 16.0716 20.9429 17.2384 21.2159 18.3462L22.6405 24.1288C22.855 24.9995 21.9037 25.6906 21.142 25.2176L16.0827 22.0757C15.1134 21.4738 13.8866 21.4738 12.9173 22.0757L7.85799 25.2176C7.09627 25.6906 6.14497 24.9995 6.35947 24.1288L7.78414 18.3462C8.05708 17.2384 7.67798 16.0716 6.806 15.3358L2.25448 11.495C1.56922 10.9167 1.93258 9.79841 2.82687 9.73337L8.76671 9.30139C9.90466 9.21863 10.8972 8.49754 11.3275 7.44086L13.5739 1.92523C13.9121 1.0948 15.0879 1.09481 15.4261 1.92522Z" fill="#C4DCD3" stroke="#34574A" stroke-width="2"/>
</svg>
